<?xml version="1.0" encoding="utf-8"?>
<!-- Generator: Adobe Illustrator 27.5.0, SVG Export Plug-In . SVG Version: 6.00 Build 0)  -->
<svg version="1.1" id="Layer_1" xmlns="http://www.w3.org/2000/svg" xmlns:xlink="http://www.w3.org/1999/xlink" x="0px" y="0px"
	 viewBox="0 0 1200 1200" style="enable-background:new 0 0 1200 1200;" xml:space="preserve">
<rect style="fill-rule:evenodd;clip-rule:evenodd;fill:#FFFFFF;" width="1200" height="1200"/>
<linearGradient id="SVGID_1_" gradientUnits="userSpaceOnUse" x1="612.3607" y1="256.6582" x2="741.3773" y2="505.0724">
	<stop  offset="0" style="stop-color:#F69262"/>
	<stop  offset="0.3226" style="stop-color:#EF4C44"/>
	<stop  offset="0.6989" style="stop-color:#CB2038"/>
	<stop  offset="1" style="stop-color:#811437"/>
</linearGradient>
<path style="fill-rule:evenodd;clip-rule:evenodd;fill:url(#SVGID_1_);" d="M622.89,196.501
	c-33.982,89.321-39.392,150.908,34.928,221.32c7.509-52.577,22.208-65.66,65.441-97.55c-89.898,124.595-1.364,136.253,25.4,254.317
	c-37.462-86.159-80.484-87.967-125.473-152.109C570.332,347.13,577.646,281.012,622.89,196.501z"/>
<linearGradient id="SVGID_00000060727913619095734640000009059613684635708313_" gradientUnits="userSpaceOnUse" x1="559.0535" y1="552.4063" x2="791.4553" y2="552.4063">
	<stop  offset="0" style="stop-color:#F69262"/>
	<stop  offset="0.3226" style="stop-color:#EF4C44"/>
	<stop  offset="0.6989" style="stop-color:#CB2038"/>
	<stop  offset="1" style="stop-color:#811437"/>
</linearGradient>
<path style="fill-rule:evenodd;clip-rule:evenodd;fill:url(#SVGID_00000060727913619095734640000009059613684635708313_);" d="
	M559.056,290.076c2.147-5.103,4.604-10.265,7.372-15.516c12.422-23.556,31.153-48.933,56.817-78.996l-0.355,0.936
	c-45.243,84.511-52.558,150.63,0.297,225.979c44.988,64.142,88.011,65.95,125.473,152.109
	c-26.765-118.064-115.298-129.723-25.4-254.317c-31.404,56.914-33.253,96.542-9.091,143.446
	c41.373,80.324,111.99,181.065,57.361,276.424c-12.19,21.294-31.579,40.404-60.617,57.976
	c-32.231,18.135-56.837,28.53-74.729,44.504c-16.145,14.412-26.824,33.357-32.696,66.628
	c-26.636-120.723,28.245-135.802,78.648-209.122c50.373-73.256,26.09-130.265-19.313-182.546
	C591.763,435.747,558.709,379.464,559.056,290.076z"/>
<linearGradient id="SVGID_00000129186497696009992440000009575801931558389420_" gradientUnits="userSpaceOnUse" x1="547.5015" y1="599.6619" x2="710.1834" y2="599.6619">
	<stop  offset="0" style="stop-color:#F69262"/>
	<stop  offset="0.3226" style="stop-color:#EF4C44"/>
	<stop  offset="0.6989" style="stop-color:#CB2038"/>
	<stop  offset="1" style="stop-color:#811437"/>
</linearGradient>
<path style="fill-rule:evenodd;clip-rule:evenodd;fill:url(#SVGID_00000129186497696009992440000009575801931558389420_);" d="
	M603.487,909.248c-89.607-112.975-21.613-148.523,14.298-216.468c21.586-40.83,31.577-93.356-11.197-181.425l-14.833-30.531
	l-0.613-1.272c-42.115-84.229-55.741-133.29-32.086-189.477c-0.347,89.389,32.707,145.671,103.767,227.504
	c45.402,52.281,69.686,109.291,19.313,182.546C631.732,773.446,576.852,788.525,603.487,909.248z"/>
<linearGradient id="SVGID_00000029765369092204696190000015039077759308150698_" gradientUnits="userSpaceOnUse" x1="431.0918" y1="536.0377" x2="557.9421" y2="536.0377">
	<stop  offset="0" style="stop-color:#F69262"/>
	<stop  offset="0.3226" style="stop-color:#EF4C44"/>
	<stop  offset="0.6989" style="stop-color:#CB2038"/>
	<stop  offset="1" style="stop-color:#811437"/>
</linearGradient>
<path style="fill-rule:evenodd;clip-rule:evenodd;fill:url(#SVGID_00000029765369092204696190000015039077759308150698_);" d="
	M517.281,396.483c-1.511,93.225,32.874,204.11-19.371,228.759c-14.962,7.069-37.047-0.506-42.202-35.867
	c-4.503-30.863,5.354-53.587,29.885-85.139c-128.053,130.416,2.281,228.711,58.519,133.093
	C582.565,571.958,529.97,473.047,517.281,396.483z"/>
<linearGradient id="SVGID_00000138542686005664328580000009947159464084731303_" gradientUnits="userSpaceOnUse" x1="695.0591" y1="443.1577" x2="232.0563" y2="839.7217">
	<stop  offset="0" style="stop-color:#F69262"/>
	<stop  offset="0.3226" style="stop-color:#EF4C44"/>
	<stop  offset="0.6989" style="stop-color:#CB2038"/>
	<stop  offset="1" style="stop-color:#811437"/>
</linearGradient>
<path style="fill-rule:evenodd;clip-rule:evenodd;fill:url(#SVGID_00000138542686005664328580000009947159464084731303_);" d="
	M598.767,541.773c-3.199-6.462-6.664-12.968-10.293-19.56c-6.404-11.651-13.318-23.629-20.177-36.329
	c-11.109-20.586-21.471-41.76-28.196-62.581c-10.441-32.314-11.673-47.602-14.995-85.758c-5.345,17.969-7.484,38.012-7.824,58.938
	c12.688,76.564,65.283,175.475,26.831,240.846c-56.238,95.618-186.571-2.677-58.519-133.093
	c-65.883,44.475-74.138,89.788-75.172,146.304c-1.79,98.794,48.106,142.366,133.206,173.497
	c-24.822-54.927-18.584-81.649,15.11-130.938C602.616,628.9,610.644,606.876,598.767,541.773z"/>
<linearGradient id="SVGID_00000011023509270122035700000016276794843518215864_" gradientUnits="userSpaceOnUse" x1="478.6154" y1="826.2171" x2="633.7747" y2="586.0385">
	<stop  offset="0" style="stop-color:#F69262"/>
	<stop  offset="0.3226" style="stop-color:#EF4C44"/>
	<stop  offset="0.6989" style="stop-color:#CB2038"/>
	<stop  offset="1" style="stop-color:#811437"/>
</linearGradient>
<path style="fill-rule:evenodd;clip-rule:evenodd;fill:url(#SVGID_00000011023509270122035700000016276794843518215864_);" d="
	M543.628,824.037c-3.203-60.833,17.832-90.756,38.378-119.213c16.986-23.522,33.643-46.043,35.997-84.194
	c1.777-28.702-6.691-53.53-19.236-78.857c11.877,65.103,3.849,87.128-40.029,151.327
	C525.044,742.388,518.806,769.11,543.628,824.037z"/>
<linearGradient id="SVGID_00000024693464596379127450000016264821569825312151_" gradientUnits="userSpaceOnUse" x1="962.9781" y1="342.0109" x2="431.7247" y2="901.8117">
	<stop  offset="0" style="stop-color:#ABABAB"/>
	<stop  offset="0.3441" style="stop-color:#7A7A7A"/>
	<stop  offset="0.6989" style="stop-color:#545454"/>
	<stop  offset="1" style="stop-color:#1F1F1F"/>
</linearGradient>
<path style="fill-rule:evenodd;clip-rule:evenodd;fill:url(#SVGID_00000024693464596379127450000016264821569825312151_);" d="
	M738.458,479.032c85.316,48.103,142.946,139.56,142.946,244.483c0,154.911-125.578,280.485-280.487,280.485
	c-154.912,0-280.49-125.574-280.49-280.485c0-104.924,57.63-196.38,142.95-244.483c-68.945,44.98-114.521,122.785-114.521,211.241
	c0,139.205,112.849,252.064,252.061,252.064c139.21,0,252.06-112.858,252.06-252.064
	C852.977,601.817,807.394,524.013,738.458,479.032z"/>
</svg>
